HIERARCHY
ROOT Hips
{
	OFFSET 0.000000 0.000000 0.000000
	CHANNELS 6 Xposition Yposition Zposition Xrotation Yrotation Zrotation
	JOINT Thigh.L
	{
		OFFSET 0.055633 0.026699 -0.095051
		CHANNELS 3 Xrotation Yrotation Zrotation
		JOINT Shin.L
		{
			OFFSET 0.060936 0.005673 -0.411804
			CHANNELS 3 Xrotation Yrotation Zrotation
			JOINT Foot.L
			{
				OFFSET -0.042479 0.031832 -0.437478
				CHANNELS 3 Xrotation Yrotation Zrotation
				JOINT Toe.L
				{
					OFFSET 0.048682 -0.127010 -0.064292
					CHANNELS 3 Xrotation Yrotation Zrotation
					End Site
					{
						OFFSET 0.000000 0.050000 0.000000
					}
				}
			}
		}
	}
	JOINT Thigh.R
	{
		OFFSET -0.060736 0.020788 -0.107802
		CHANNELS 3 Xrotation Yrotation Zrotation
		JOINT Shin.R
		{
			OFFSET -0.049864 0.013926 -0.393040
			CHANNELS 3 Xrotation Yrotation Zrotation
			JOINT Foot.R
			{
				OFFSET 0.014096 0.019912 -0.446503
				CHANNELS 3 Xrotation Yrotation Zrotation
				JOINT Toe.R
				{
					OFFSET -0.039965 -0.127849 -0.064162
					CHANNELS 3 Xrotation Yrotation Zrotation
					End Site
					{
						OFFSET 0.000000 0.050000 0.000000
					}
				}
			}
		}
	}
	JOINT Spine
	{
		OFFSET -0.002752 0.028400 0.114289
		CHANNELS 3 Xrotation Yrotation Zrotation
		JOINT Spine.2
		{
			OFFSET 0.009296 0.007235 0.141291
			CHANNELS 3 Xrotation Yrotation Zrotation
			JOINT Chest
			{
				OFFSET -0.010898 -0.023398 0.056879
				CHANNELS 3 Xrotation Yrotation Zrotation
				JOINT Neck
				{
					OFFSET -0.012354 0.025595 0.171253
					CHANNELS 3 Xrotation Yrotation Zrotation
					JOINT Head
					{
						OFFSET 0.025597 -0.022281 0.172545
						CHANNELS 3 Xrotation Yrotation Zrotation
						End Site
						{
							OFFSET 0.000000 0.050000 0.000000
						}
					}
				}
				JOINT Clavicle.L
				{
					OFFSET 0.047584 0.004445 0.088123
					CHANNELS 3 Xrotation Yrotation Zrotation
					JOINT UpperArm.L
					{
						OFFSET 0.128121 0.014248 0.057770
						CHANNELS 3 Xrotation Yrotation Zrotation
						JOINT ForeArm.L
						{
							OFFSET 0.269599 0.043929 -0.075711
							CHANNELS 3 Xrotation Yrotation Zrotation
							JOINT Hand.L
							{
								OFFSET 0.273792 0.000498 0.022481
								CHANNELS 3 Xrotation Yrotation Zrotation
								JOINT Thumb1.L
								{
									OFFSET 0.154597 0.000218 0.009820
									CHANNELS 3 Xrotation Yrotation Zrotation
									JOINT Thumb2.L
									{
										OFFSET 0.029899 0.000054 0.002455
										CHANNELS 3 Xrotation Yrotation Zrotation
										End Site
										{
											OFFSET 0.024916 0.000045 0.002046
										}
									}
								}
								JOINT Index1.L
								{
									OFFSET 0.137597 0.000218 0.009820
									CHANNELS 3 Xrotation Yrotation Zrotation
									JOINT Index2.L
									{
										OFFSET 0.029899 0.000054 0.002455
										CHANNELS 3 Xrotation Yrotation Zrotation
										JOINT Index3.L
										{
											OFFSET 0.021926 0.000040 0.001800
											CHANNELS 3 Xrotation Yrotation Zrotation
											End Site
											{
												OFFSET 0.017940 0.000033 0.001473
											}
										}
									}
								}
								JOINT Middle1.L
								{
									OFFSET 0.119597 0.000218 0.009820
									CHANNELS 3 Xrotation Yrotation Zrotation
									JOINT Middle2.L
									{
										OFFSET 0.030896 0.000056 0.002537
										CHANNELS 3 Xrotation Yrotation Zrotation
										JOINT Middle3.L
										{
											OFFSET 0.021926 0.000040 0.001800
											CHANNELS 3 Xrotation Yrotation Zrotation
											End Site
											{
												OFFSET 0.017940 0.000033 0.001473
											}
										}
									}
								}
								JOINT Ring1.L
								{
									OFFSET 0.101597 0.000218 0.009820
									CHANNELS 3 Xrotation Yrotation Zrotation
									JOINT Ring2.L
									{
										OFFSET 0.028903 0.000053 0.002373
										CHANNELS 3 Xrotation Yrotation Zrotation
										JOINT Ring3.L
										{
											OFFSET 0.019933 0.000036 0.001637
											CHANNELS 3 Xrotation Yrotation Zrotation
											End Site
											{
												OFFSET 0.016943 0.000031 0.001391
											}
										}
									}
								}
								JOINT Pinky1.L
								{
									OFFSET 0.085597 0.000218 0.009820
									CHANNELS 3 Xrotation Yrotation Zrotation
									JOINT Pinky2.L
									{
										OFFSET 0.023919 0.000044 0.001964
										CHANNELS 3 Xrotation Yrotation Zrotation
										JOINT Pinky3.L
										{
											OFFSET 0.016943 0.000031 0.001391
											CHANNELS 3 Xrotation Yrotation Zrotation
											End Site
											{
												OFFSET 0.013953 0.000025 0.001146
											}
										}
									}
								}
							}
						}
					}
				}
				JOINT Clavicle.R
				{
					OFFSET -0.048740 0.010676 0.087154
					CHANNELS 3 Xrotation Yrotation Zrotation
					JOINT UpperArm.R
					{
						OFFSET -0.111196 0.010614 0.054078
						CHANNELS 3 Xrotation Yrotation Zrotation
						JOINT ForeArm.R
						{
							OFFSET -0.287967 0.028456 -0.039668
							CHANNELS 3 Xrotation Yrotation Zrotation
							JOINT Hand.R
							{
								OFFSET -0.270087 0.014108 -0.005640
								CHANNELS 3 Xrotation Yrotation Zrotation
								JOINT Thumb1.R
								{
									OFFSET -0.154811 0.006258 -0.002502
									CHANNELS 3 Xrotation Yrotation Zrotation
									JOINT Thumb2.R
									{
										OFFSET -0.029953 0.001565 -0.000625
										CHANNELS 3 Xrotation Yrotation Zrotation
										End Site
										{
											OFFSET -0.024961 0.001304 -0.000521
										}
									}
								}
								JOINT Index1.R
								{
									OFFSET -0.137811 0.006258 -0.002502
									CHANNELS 3 Xrotation Yrotation Zrotation
									JOINT Index2.R
									{
										OFFSET -0.029953 0.001565 -0.000625
										CHANNELS 3 Xrotation Yrotation Zrotation
										JOINT Index3.R
										{
											OFFSET -0.021965 0.001147 -0.000459
											CHANNELS 3 Xrotation Yrotation Zrotation
											End Site
											{
												OFFSET -0.017972 0.000939 -0.000375
											}
										}
									}
								}
								JOINT Middle1.R
								{
									OFFSET -0.119811 0.006258 -0.002502
									CHANNELS 3 Xrotation Yrotation Zrotation
									JOINT Middle2.R
									{
										OFFSET -0.030951 0.001617 -0.000646
										CHANNELS 3 Xrotation Yrotation Zrotation
										JOINT Middle3.R
										{
											OFFSET -0.021965 0.001147 -0.000459
											CHANNELS 3 Xrotation Yrotation Zrotation
											End Site
											{
												OFFSET -0.017972 0.000939 -0.000375
											}
										}
									}
								}
								JOINT Ring1.R
								{
									OFFSET -0.101811 0.006258 -0.002502
									CHANNELS 3 Xrotation Yrotation Zrotation
									JOINT Ring2.R
									{
										OFFSET -0.028954 0.001512 -0.000605
										CHANNELS 3 Xrotation Yrotation Zrotation
										JOINT Ring3.R
										{
											OFFSET -0.019968 0.001043 -0.000417
											CHANNELS 3 Xrotation Yrotation Zrotation
											End Site
											{
												OFFSET -0.016973 0.000887 -0.000354
											}
										}
									}
								}
								JOINT Pinky1.R
								{
									OFFSET -0.085811 0.006258 -0.002502
									CHANNELS 3 Xrotation Yrotation Zrotation
									JOINT Pinky2.R
									{
										OFFSET -0.023962 0.001252 -0.000500
										CHANNELS 3 Xrotation Yrotation Zrotation
										JOINT Pinky3.R
										{
											OFFSET -0.016973 0.000887 -0.000354
											CHANNELS 3 Xrotation Yrotation Zrotation
											End Site
											{
												OFFSET -0.013978 0.000730 -0.000292
											}
										}
									}
								}
							}
						}
					}
				}
			}
		}
	}
}
MOTION
Frames: 7
Frame Time: 0.03333333
0.007585 -0.062981 1.030839 -7.978213 -0.720799 0.960930 7.864843 -2.670722 3.174856 2.126888 1.404995 -8.325363 -6.138419 -0.392296 10.352785 -1.162972 -1.646322 -0.626902 4.271533 4.876011 -4.320590 9.033623 1.111522 3.278509 -5.779051 -5.188491 -8.878944 0.206982 -0.275209 1.342317 6.986148 1.641144 2.216095 -0.266228 1.087902 -1.300019 5.315375 -1.051993 -0.211690 5.033199 1.869118 0.743129 1.608481 -2.349748 1.765837 -0.959936 16.973369 -3.067190 25.041160 47.869744 -26.977032 13.439477 -0.103209 -23.023490 -11.014085 -0.517816 -8.856135 0.000000 0.000000 0.000000 0.000000 0.000000 0.000000 0.000000 0.000000 0.000000 0.000000 0.000000 0.000000 0.000000 0.000000 0.000000 0.000000 0.000000 0.000000 0.000000 0.000000 0.000000 0.000000 0.000000 0.000000 0.000000 0.000000 0.000000 0.000000 0.000000 0.000000 0.000000 0.000000 0.000000 0.000000 0.000000 0.000000 0.000000 0.000000 0.000000 0.000000 0.000000 0.000000 0.033138 -16.054674 8.417055 30.132826 -48.929265 29.118608 8.632256 1.696035 28.856282 -7.246451 0.259926 5.431415 0.000000 0.000000 0.000000 0.000000 0.000000 0.000000 0.000000 0.000000 0.000000 0.000000 0.000000 0.000000 0.000000 0.000000 0.000000 0.000000 0.000000 0.000000 0.000000 0.000000 0.000000 0.000000 0.000000 0.000000 0.000000 0.000000 0.000000 0.000000 0.000000 0.000000 0.000000 0.000000 0.000000 0.000000 0.000000 0.000000 0.000000 0.000000 0.000000 0.000000 0.000000 0.000000
0.007886 -0.063264 1.030922 -8.002001 -0.740185 1.015438 7.958300 -2.637434 3.186989 1.968910 1.352083 -8.273963 -6.091242 -0.342112 10.292410 -1.176995 -1.660208 -0.611915 4.301637 4.838684 -4.292986 9.029244 1.173145 3.307192 -5.766938 -5.161080 -8.956322 0.224686 -0.242590 1.373616 6.973396 1.643970 2.219692 -0.228913 1.065151 -1.301012 5.305794 -1.061885 -0.219375 5.003124 1.841863 0.697997 1.585930 -2.365740 1.692290 -0.966126 16.979021 -3.083213 25.017892 47.887623 -26.993950 13.439088 -0.111274 -22.989490 -10.919693 -0.469572 -8.860268 0.000000 0.000000 0.000000 0.000000 0.000000 0.000000 0.000000 0.000000 0.000000 0.000000 0.000000 0.000000 0.000000 0.000000 0.000000 0.000000 0.000000 0.000000 0.000000 0.000000 0.000000 0.000000 0.000000 0.000000 0.000000 0.000000 0.000000 0.000000 0.000000 0.000000 0.000000 0.000000 0.000000 0.000000 0.000000 0.000000 0.000000 0.000000 0.000000 0.000000 0.000000 0.000000 0.019820 -16.038257 8.433624 30.162109 -48.944796 29.140635 8.721988 1.766463 28.815041 -7.103209 0.267753 5.435417 0.000000 0.000000 0.000000 0.000000 0.000000 0.000000 0.000000 0.000000 0.000000 0.000000 0.000000 0.000000 0.000000 0.000000 0.000000 0.000000 0.000000 0.000000 0.000000 0.000000 0.000000 0.000000 0.000000 0.000000 0.000000 0.000000 0.000000 0.000000 0.000000 0.000000 0.000000 0.000000 0.000000 0.000000 0.000000 0.000000 0.000000 0.000000 0.000000 0.000000 0.000000 0.000000
0.008440 -0.064018 1.031056 -8.069547 -0.781680 1.006788 8.089106 -2.586951 3.191464 1.821702 1.318946 -8.271464 -6.016166 -0.322178 10.297496 -1.187940 -1.674738 -0.609416 4.342204 4.843587 -4.272090 9.051290 1.210157 3.346285 -5.769443 -5.135291 -9.003585 0.239877 -0.204402 1.403869 6.966901 1.641091 2.222097 -0.238540 1.075657 -1.292275 5.330024 -1.064523 -0.222889 4.955397 1.815267 0.670043 1.666227 -2.351013 1.615468 -0.965437 16.961812 -3.077921 24.999559 47.877044 -26.980607 13.404348 -0.088326 -23.027751 -11.034911 -0.540276 -8.867227 0.000000 0.000000 0.000000 0.000000 0.000000 0.000000 0.000000 0.000000 0.000000 0.000000 0.000000 0.000000 0.000000 0.000000 0.000000 0.000000 0.000000 0.000000 0.000000 0.000000 0.000000 0.000000 0.000000 0.000000 0.000000 0.000000 0.000000 0.000000 0.000000 0.000000 0.000000 0.000000 0.000000 0.000000 0.000000 0.000000 0.000000 0.000000 0.000000 0.000000 0.000000 0.000000 -0.002045 -16.038356 8.445607 30.203677 -48.949511 29.191093 8.749402 1.785278 28.805081 -7.077245 0.393403 5.410482 0.000000 0.000000 0.000000 0.000000 0.000000 0.000000 0.000000 0.000000 0.000000 0.000000 0.000000 0.000000 0.000000 0.000000 0.000000 0.000000 0.000000 0.000000 0.000000 0.000000 0.000000 0.000000 0.000000 0.000000 0.000000 0.000000 0.000000 0.000000 0.000000 0.000000 0.000000 0.000000 0.000000 0.000000 0.000000 0.000000 0.000000 0.000000 0.000000 0.000000 0.000000 0.000000
0.008722 -0.064262 1.031133 -8.090728 -0.805945 1.032129 8.182872 -2.557071 3.186541 1.666955 1.298486 -8.257172 -5.939645 -0.312811 10.272591 -1.212493 -1.676482 -0.584472 4.374154 4.847144 -4.249932 9.034352 1.224471 3.365739 -5.756005 -5.123234 -9.046571 0.258786 -0.154633 1.447809 6.952358 1.651791 2.229201 -0.213544 1.076541 -1.280797 5.333050 -1.063563 -0.222940 4.910601 1.765708 0.634796 1.710422 -2.365522 1.520139 -0.974909 16.969960 -3.068493 24.970276 47.855511 -26.950147 13.388640 -0.090314 -23.099469 -11.045692 -0.553140 -8.868303 0.000000 0.000000 0.000000 0.000000 0.000000 0.000000 0.000000 0.000000 0.000000 0.000000 0.000000 0.000000 0.000000 0.000000 0.000000 0.000000 0.000000 0.000000 0.000000 0.000000 0.000000 0.000000 0.000000 0.000000 0.000000 0.000000 0.000000 0.000000 0.000000 0.000000 0.000000 0.000000 0.000000 0.000000 0.000000 0.000000 0.000000 0.000000 0.000000 0.000000 0.000000 0.000000 -0.002292 -16.062526 8.446065 30.223329 -48.929303 29.179825 8.754716 1.811263 28.844829 -7.015593 0.440951 5.399845 0.000000 0.000000 0.000000 0.000000 0.000000 0.000000 0.000000 0.000000 0.000000 0.000000 0.000000 0.000000 0.000000 0.000000 0.000000 0.000000 0.000000 0.000000 0.000000 0.000000 0.000000 0.000000 0.000000 0.000000 0.000000 0.000000 0.000000 0.000000 0.000000 0.000000 0.000000 0.000000 0.000000 0.000000 0.000000 0.000000 0.000000 0.000000 0.000000 0.000000 0.000000 0.000000
0.008559 -0.063853 1.031144 -8.059550 -0.799600 1.073244 8.186472 -2.558199 3.165028 1.614072 1.294079 -8.271315 -5.921122 -0.313486 10.266201 -1.222935 -1.677249 -0.579135 4.350869 4.849727 -4.229303 9.056143 1.214532 3.398861 -5.735082 -5.128087 -9.079664 0.274160 -0.132465 1.464007 6.924920 1.647415 2.235848 -0.208042 1.084919 -1.253176 5.329202 -1.063997 -0.209735 4.851285 1.759051 0.580118 1.664295 -2.400744 1.428459 -1.007706 16.994953 -3.023428 24.952387 47.862457 -26.908245 13.347125 -0.094279 -23.188207 -11.004932 -0.516902 -8.875430 0.000000 0.000000 0.000000 0.000000 0.000000 0.000000 0.000000 0.000000 0.000000 0.000000 0.000000 0.000000 0.000000 0.000000 0.000000 0.000000 0.000000 0.000000 0.000000 0.000000 0.000000 0.000000 0.000000 0.000000 0.000000 0.000000 0.000000 0.000000 0.000000 0.000000 0.000000 0.000000 0.000000 0.000000 0.000000 0.000000 0.000000 0.000000 0.000000 0.000000 0.000000 0.000000 0.043214 -16.072394 8.435119 30.175269 -48.912164 29.090266 8.803206 1.807413 28.890904 -6.931733 0.443671 5.422168 0.000000 0.000000 0.000000 0.000000 0.000000 0.000000 0.000000 0.000000 0.000000 0.000000 0.000000 0.000000 0.000000 0.000000 0.000000 0.000000 0.000000 0.000000 0.000000 0.000000 0.000000 0.000000 0.000000 0.000000 0.000000 0.000000 0.000000 0.000000 0.000000 0.000000 0.000000 0.000000 0.000000 0.000000 0.000000 0.000000 0.000000 0.000000 0.000000 0.000000 0.000000 0.000000
0.009051 -0.063380 1.031160 -8.025292 -0.838387 1.084704 8.194148 -2.532161 3.146609 1.558198 1.296164 -8.257953 -5.860620 -0.318156 10.243352 -1.239636 -1.677282 -0.564845 4.323737 4.870870 -4.220168 9.074307 1.225095 3.420916 -5.749008 -5.115037 -9.098171 0.280773 -0.088631 1.491141 6.901228 1.667842 2.242026 -0.185449 1.073921 -1.241896 5.310097 -1.049877 -0.193583 4.828885 1.711288 0.563641 1.691145 -2.427374 1.338254 -1.009690 16.981174 -3.006308 24.954526 47.845229 -26.892917 13.328078 -0.070845 -23.226198 -10.989825 -0.484960 -8.904128 0.000000 0.000000 0.000000 0.000000 0.000000 0.000000 0.000000 0.000000 0.000000 0.000000 0.000000 0.000000 0.000000 0.000000 0.000000 0.000000 0.000000 0.000000 0.000000 0.000000 0.000000 0.000000 0.000000 0.000000 0.000000 0.000000 0.000000 0.000000 0.000000 0.000000 0.000000 0.000000 0.000000 0.000000 0.000000 0.000000 0.000000 0.000000 0.000000 0.000000 0.000000 0.000000 0.074420 -16.103885 8.423206 30.167178 -48.891544 29.049648 8.836405 1.798909 28.950190 -6.854856 0.427565 5.443337 0.000000 0.000000 0.000000 0.000000 0.000000 0.000000 0.000000 0.000000 0.000000 0.000000 0.000000 0.000000 0.000000 0.000000 0.000000 0.000000 0.000000 0.000000 0.000000 0.000000 0.000000 0.000000 0.000000 0.000000 0.000000 0.000000 0.000000 0.000000 0.000000 0.000000 0.000000 0.000000 0.000000 0.000000 0.000000 0.000000 0.000000 0.000000 0.000000 0.000000 0.000000 0.000000
0.009104 -0.063414 1.031215 -8.031359 -0.849193 1.084255 8.192359 -2.522015 3.119842 1.575445 1.303357 -8.286956 -5.838044 -0.335686 10.275062 -1.246818 -1.680990 -0.567630 4.293627 4.890340 -4.200980 9.144677 1.217150 3.432600 -5.752590 -5.128646 -9.116561 0.279050 -0.057187 1.503644 6.915271 1.686133 2.249762 -0.193144 1.078397 -1.228911 5.321307 -1.041685 -0.184407 4.829598 1.695532 0.554038 1.675976 -2.442164 1.304367 -1.031030 16.960026 -2.973100 24.957481 47.854477 -26.879029 13.329824 -0.088739 -23.309963 -11.038713 -0.550727 -8.927586 0.000000 0.000000 0.000000 0.000000 0.000000 0.000000 0.000000 0.000000 0.000000 0.000000 0.000000 0.000000 0.000000 0.000000 0.000000 0.000000 0.000000 0.000000 0.000000 0.000000 0.000000 0.000000 0.000000 0.000000 0.000000 0.000000 0.000000 0.000000 0.000000 0.000000 0.000000 0.000000 0.000000 0.000000 0.000000 0.000000 0.000000 0.000000 0.000000 0.000000 0.000000 0.000000 0.068456 -16.095091 8.419177 30.149493 -48.913302 29.009795 8.857723 1.791856 28.990420 -6.842230 0.479058 5.465037 0.000000 0.000000 0.000000 0.000000 0.000000 0.000000 0.000000 0.000000 0.000000 0.000000 0.000000 0.000000 0.000000 0.000000 0.000000 0.000000 0.000000 0.000000 0.000000 0.000000 0.000000 0.000000 0.000000 0.000000 0.000000 0.000000 0.000000 0.000000 0.000000 0.000000 0.000000 0.000000 0.000000 0.000000 0.000000 0.000000 0.000000 0.000000 0.000000 0.000000 0.000000 0.000000
